<?xml version="1.0" encoding="UTF-8"?>
<svg id="Ebene_1" data-name="Ebene 1" xmlns="http://www.w3.org/2000/svg" viewBox="0 0 190.14 189.97">
  <defs>
    <style>
      .cls-1 {
        opacity: .6;
      }

      .cls-1, .cls-2, .cls-3, .cls-4 {
        fill: #ffbc00;
      }

      .cls-2 {
        opacity: .4;
      }

      .cls-3 {
        opacity: .8;
      }
    </style>
  </defs>
  <g>
    <path class="cls-3" d="M102.52.31v40.96h70.41C157.25,18.35,131.77,2.69,102.52.31Z"/>
    <path class="cls-3" d="M52.81,94.98c0,23.33,17.85,42.5,40.39,44.13V50.85c-22.54,1.63-40.39,20.8-40.39,44.13Z"/>
    <path class="cls-1" d="M52.92,41.26h40.28V0c-.1,0-.2,0-.31,0-21.37,1.71-38.45,19.31-39.97,41.25Z"/>
    <path class="cls-2" d="M16.5,41.26h26.99V15.03c-10.65,6.86-19.84,15.79-26.99,26.23Z"/>
    <path class="cls-2" d="M0,94.98c0,.06,0,.12,0,.18.06,9.79,3.38,19.28,9.31,26.98v-54.31C3.38,75.52.06,85.02,0,94.8c0,.06,0,.12,0,.18Z"/>
    <path class="cls-3" d="M102.52,189.66c29.25-2.39,54.73-18.04,70.41-40.96h-70.41v40.96Z"/>
    <path class="cls-1" d="M92.89,189.96c.1,0,.2,0,.31,0v-41.26h-40.28c1.52,21.95,18.61,39.54,39.97,41.25Z"/>
    <path class="cls-1" d="M43.49,94.98v-39.92c-15.01,7.22-24.82,22.73-24.85,39.92.03,17.19,9.84,32.7,24.85,39.92v-39.92Z"/>
    <path class="cls-2" d="M43.49,174.94v-26.23h-26.99c7.15,10.44,16.34,19.37,26.99,26.23Z"/>
  </g>
  <circle class="cls-4" cx="145.98" cy="94.98" r="44.16"/>
</svg>
