<?xml version="1.0" encoding="UTF-8"?>
<svg id="Ebene_1" xmlns="http://www.w3.org/2000/svg" version="1.1" viewBox="0 0 694.06 189.96">
  <defs>
    <style>
      .st0 {
        opacity: .4;
      }

      .st0, .st1, .st2, .st3 {
        fill: #ffbc00;
      }

      .st0, .st1, .st2, .st4 {
        isolation: isolate;
      }

      .st1 {
        opacity: .8;
      }

      .st2 {
        opacity: .6;
      }

      .st4 {
        fill: #fff;
        opacity: .9;
      }
    </style>
  </defs>
  <g>
    <path class="st4" d="M284.82,101.6c-.17,15.2-9.49,30.41-30.16,30.41s-30.24-14.87-30.24-30.32,9.91-31,30.24-31,30.32,15.54,30.16,30.91ZM235.34,101.85c.25,9.66,5.46,19.99,19.32,19.99s19.07-10.42,19.24-20.08c.17-9.91-5.38-21-19.24-21s-19.57,11.17-19.32,21.08h0Z"/>
    <path class="st4" d="M292.21,147.96v-58.72h9.58l.67,5.71c3.19-4.62,8.74-6.64,13.44-6.64,12.77,0,21.25,9.49,21.25,21.67s-7.64,21.67-20.92,21.67c-4.37,0-10.84-1.34-13.78-5.88v22.18h-10.25.01ZM326.9,110c0-6.47-4.37-11.76-11.76-11.76s-11.76,5.29-11.76,11.76,4.79,11.76,11.76,11.76,11.76-5.29,11.76-11.76Z"/>
    <path class="st4" d="M353.45,113.61c.67,5.12,5.12,8.82,12.35,8.82,3.78,0,8.74-1.43,11.09-3.86l6.55,6.47c-4.37,4.54-11.51,6.72-17.81,6.72-14.28,0-22.76-8.82-22.76-22.09s8.57-21.67,22.01-21.67,22.51,8.57,20.92,25.62h-32.35ZM375.96,105.12c-.67-5.38-4.87-8.06-10.75-8.06-5.54,0-10.08,2.69-11.59,8.06h22.34Z"/>
    <path class="st4" d="M424.17,130.66v-21.67c0-6.3-3.44-11.09-10-11.09s-10.58,5.29-10.58,11.59v21.17h-10.16v-41.5h9.16l.67,5.63c4.2-4.12,8.4-6.22,13.61-6.22,9.74,0,17.56,7.31,17.56,20.33v21.76h-10.26Z"/>
    <path class="st3" d="M444,130.66v-58.72h42.25v10.67h-31.16v16.04h29.48v10.25h-29.48v21.76h-11.09Z"/>
    <path class="st3" d="M534.3,110c0,11.93-8.15,21.59-21.59,21.59s-21.5-9.66-21.5-21.59,8.23-21.59,21.42-21.59,21.67,9.74,21.67,21.59h0ZM501.45,110c0,6.3,3.78,12.18,11.26,12.18s11.26-5.88,11.26-12.18-4.37-12.26-11.26-12.26c-7.39,0-11.26,6.05-11.26,12.26h0Z"/>
    <path class="st3" d="M551.52,71.94v58.72h-10.16v-58.72s10.16,0,10.16,0Z"/>
    <path class="st3" d="M570.67,71.94v58.72h-10.16v-58.72s10.16,0,10.16,0Z"/>
    <path class="st3" d="M620.82,110c0,11.93-8.15,21.59-21.59,21.59s-21.5-9.66-21.5-21.59,8.23-21.59,21.42-21.59,21.67,9.74,21.67,21.59h0ZM587.97,110c0,6.3,3.78,12.18,11.26,12.18s11.26-5.88,11.26-12.18-4.37-12.26-11.26-12.26c-7.39,0-11.26,6.05-11.26,12.26h0Z"/>
    <path class="st3" d="M664.16,89.16l9.07,31.16,9.49-31.16h11.34l-14.45,41.66h-11.93l-4.28-12.26-3.7-13.86-3.7,13.86-4.28,12.26h-11.93l-14.53-41.66h11.42l9.49,31.16,8.99-31.16h9Z"/>
  </g>
  <g>
    <g>
      <path class="st1" d="M102.51.31v40.96h70.41C157.24,18.36,131.75,2.7,102.51.31Z"/>
      <path class="st1" d="M52.8,94.98c0,23.33,17.85,42.5,40.39,44.13V50.85c-22.54,1.63-40.39,20.8-40.39,44.13Z"/>
      <path class="st2" d="M52.91,41.26h40.28V0h-.31c-21.37,1.71-38.45,19.31-39.97,41.25h0Z"/>
      <path class="st0" d="M16.49,41.26h26.99V15.03c-10.65,6.86-19.84,15.79-26.99,26.23Z"/>
      <path class="st0" d="M0,94.98v.18c.06,9.79,3.38,19.28,9.31,26.98v-54.31C3.38,75.52.06,85.02,0,94.81v.18h0Z"/>
      <path class="st1" d="M102.51,189.66c29.25-2.39,54.73-18.04,70.41-40.96h-70.41v40.96Z"/>
      <path class="st2" d="M92.88,189.96h.31v-41.26h-40.28c1.52,21.95,18.61,39.54,39.97,41.25h0Z"/>
      <path class="st2" d="M43.48,94.98v-39.92c-15.01,7.22-24.82,22.73-24.85,39.92.03,17.19,9.84,32.7,24.85,39.92v-39.92Z"/>
      <path class="st0" d="M43.48,174.94v-26.23h-26.99c7.15,10.44,16.34,19.37,26.99,26.23Z"/>
    </g>
    <circle class="st3" cx="145.97" cy="94.98" r="44.16"/>
  </g>
</svg>
