<svg xmlns="http://www.w3.org/2000/svg" viewBox="0 0 1920 1080" width="100%" preserveAspectRatio="xMidYMid meet" font-family="system-ui, -apple-system, sans-serif">
<defs>
<linearGradient id="bg" x1="0" y1="0" x2="0" y2="1"><stop offset="0%" stop-color="#1a1820"/><stop offset="100%" stop-color="#0a0a10"/></linearGradient>
<linearGradient id="cyc" x1="0" y1="0" x2="0" y2="1"><stop offset="0%" stop-color="#3a3050"/><stop offset="100%" stop-color="#1a1428"/></linearGradient>
<linearGradient id="floor" x1="0" y1="0" x2="0" y2="1"><stop offset="0%" stop-color="#2a2218"/><stop offset="100%" stop-color="#181208"/></linearGradient>
</defs>
<rect x="0" y="0" width="1920" height="1080" fill="url(#bg)"/>
<polygon points="360.0,422.8 1560.0,422.8 1631.2,-80.1 288.8,-80.1" fill="url(#cyc)" stroke="#0a0612" stroke-width="1"/>
<polygon points="-11.3,766.1 360.0,422.8 288.8,-80.1 -213.0,-41.4"  fill="#0c0810" stroke="#000" stroke-width="1"/>
<polygon points="1931.3,766.1 1560.0,422.8 1631.2,-80.1 2133.0,-41.4" fill="#0c0810" stroke="#000" stroke-width="1"/>
<polygon points="-11.3,766.1 1931.3,766.1 1560.0,422.8 360.0,422.8" fill="url(#floor)" stroke="#0a0805" stroke-width="1"/>
<polygon points="-11.3,766.1 1931.3,766.1 1901.9,884.0 18.1,884.0" fill="#1a1208" stroke="#000" stroke-width="1"/>
<polygon points="127.4,766.1 152.4,739.2 8.1,39.3 -26.8,45.6"  fill="#0c0810" stroke="#000" stroke-width="1"/>
<polygon points="1792.6,766.1 1946.8,45.6 1911.9,39.3 1767.6,739.2" fill="#0c0810" stroke="#000" stroke-width="1"/>
<polygon points="-26.8,45.6 1946.8,45.6 1911.9,39.3 8.1,39.3"   fill="#0c0810" stroke="#000" stroke-width="1"/>
<polygon points="-3076.6,884.0 152.7,884.0 -150.2,-530.9 -4591.1,-530.9"  fill="#1a1418" stroke="#000" stroke-width="1"/>
<polygon points="1767.3,884.0 4996.6,884.0 6511.1,-530.9 2070.2,-530.9" fill="#1a1418" stroke="#000" stroke-width="1"/>
<polygon points="-3974.0,45.6 5894.0,45.6 6511.1,-530.9 -4591.1,-530.9"   fill="#1a1418" stroke="#000" stroke-width="1"/>
<polygon points="-13093.8,3405.0 15013.8,3405.0 4996.6,884.0 -3076.6,884.0" fill="#15100c" stroke="#000" stroke-width="1"/>
<polygon points="-645.4,954.3 -563.7,954.3 -607.3,896.4 -691.4,896.4" fill="#5a1212" stroke="#1a0606" stroke-width="0.6"/>
<polygon points="-552.0,954.3 -470.3,954.3 -511.2,896.4 -595.3,896.4" fill="#5a1212" stroke="#1a0606" stroke-width="0.6"/>
<polygon points="-458.6,954.3 -376.9,954.3 -415.2,896.4 -499.2,896.4" fill="#5a1212" stroke="#1a0606" stroke-width="0.6"/>
<polygon points="-365.2,954.3 -283.5,954.3 -319.1,896.4 -403.2,896.4" fill="#5a1212" stroke="#1a0606" stroke-width="0.6"/>
<polygon points="-271.8,954.3 -190.1,954.3 -223.0,896.4 -307.1,896.4" fill="#5a1212" stroke="#1a0606" stroke-width="0.6"/>
<polygon points="-178.4,954.3 -96.6,954.3 -126.9,896.4 -211.0,896.4" fill="#5a1212" stroke="#1a0606" stroke-width="0.6"/>
<polygon points="-85.0,954.3 -3.2,954.3 -30.8,896.4 -114.9,896.4" fill="#5a1212" stroke="#1a0606" stroke-width="0.6"/>
<polygon points="8.4,954.3 90.2,954.3 65.2,896.4 -18.8,896.4" fill="#5a1212" stroke="#1a0606" stroke-width="0.6"/>
<polygon points="101.8,954.3 183.6,954.3 161.3,896.4 77.3,896.4" fill="#5a1212" stroke="#1a0606" stroke-width="0.6"/>
<polygon points="195.2,954.3 277.0,954.3 257.4,896.4 173.3,896.4" fill="#5a1212" stroke="#1a0606" stroke-width="0.6"/>
<polygon points="288.6,954.3 370.4,954.3 353.5,896.4 269.4,896.4" fill="#5a1212" stroke="#1a0606" stroke-width="0.6"/>
<polygon points="382.1,954.3 463.8,954.3 449.6,896.4 365.5,896.4" fill="#5a1212" stroke="#1a0606" stroke-width="0.6"/>
<polygon points="475.5,954.3 557.2,954.3 545.6,896.4 461.6,896.4" fill="#5a1212" stroke="#1a0606" stroke-width="0.6"/>
<polygon points="568.9,954.3 650.6,954.3 641.7,896.4 557.7,896.4" fill="#5a1212" stroke="#1a0606" stroke-width="0.6"/>
<polygon points="662.3,954.3 744.0,954.3 737.8,896.4 653.7,896.4" fill="#5a1212" stroke="#1a0606" stroke-width="0.6"/>
<polygon points="755.7,954.3 837.4,954.3 833.9,896.4 749.8,896.4" fill="#5a1212" stroke="#1a0606" stroke-width="0.6"/>
<polygon points="849.1,954.3 930.8,954.3 930.0,896.4 845.9,896.4" fill="#5a1212" stroke="#1a0606" stroke-width="0.6"/>
<polygon points="942.5,954.3 1024.2,954.3 1026.1,896.4 942.0,896.4" fill="#5a1212" stroke="#1a0606" stroke-width="0.6"/>
<polygon points="1035.9,954.3 1117.6,954.3 1122.1,896.4 1038.1,896.4" fill="#5a1212" stroke="#1a0606" stroke-width="0.6"/>
<polygon points="1129.3,954.3 1211.0,954.3 1218.2,896.4 1134.1,896.4" fill="#5a1212" stroke="#1a0606" stroke-width="0.6"/>
<polygon points="1222.7,954.3 1304.4,954.3 1314.3,896.4 1230.2,896.4" fill="#5a1212" stroke="#1a0606" stroke-width="0.6"/>
<polygon points="1316.1,954.3 1397.8,954.3 1410.4,896.4 1326.3,896.4" fill="#5a1212" stroke="#1a0606" stroke-width="0.6"/>
<polygon points="1409.5,954.3 1491.2,954.3 1506.5,896.4 1422.4,896.4" fill="#5a1212" stroke="#1a0606" stroke-width="0.6"/>
<polygon points="1502.9,954.3 1584.6,954.3 1602.5,896.4 1518.5,896.4" fill="#5a1212" stroke="#1a0606" stroke-width="0.6"/>
<polygon points="1596.3,954.3 1678.1,954.3 1698.6,896.4 1614.6,896.4" fill="#5a1212" stroke="#1a0606" stroke-width="0.6"/>
<polygon points="1689.7,954.3 1771.5,954.3 1794.7,896.4 1710.6,896.4" fill="#5a1212" stroke="#1a0606" stroke-width="0.6"/>
<polygon points="1783.1,954.3 1864.9,954.3 1890.8,896.4 1806.7,896.4" fill="#5a1212" stroke="#1a0606" stroke-width="0.6"/>
<polygon points="1876.5,954.3 1958.3,954.3 1986.9,896.4 1902.8,896.4" fill="#5a1212" stroke="#1a0606" stroke-width="0.6"/>
<polygon points="1969.9,954.3 2051.7,954.3 2083.0,896.4 1998.9,896.4" fill="#5a1212" stroke="#1a0606" stroke-width="0.6"/>
<polygon points="2063.4,954.3 2145.1,954.3 2179.0,896.4 2095.0,896.4" fill="#5a1212" stroke="#1a0606" stroke-width="0.6"/>
<polygon points="2156.8,954.3 2238.5,954.3 2275.1,896.4 2191.0,896.4" fill="#5a1212" stroke="#1a0606" stroke-width="0.6"/>
<polygon points="2250.2,954.3 2331.9,954.3 2371.2,896.4 2287.1,896.4" fill="#5a1212" stroke="#1a0606" stroke-width="0.6"/>
<polygon points="2343.6,954.3 2425.3,954.3 2467.3,896.4 2383.2,896.4" fill="#5a1212" stroke="#1a0606" stroke-width="0.6"/>
<polygon points="2437.0,954.3 2518.7,954.3 2563.4,896.4 2479.3,896.4" fill="#5a1212" stroke="#1a0606" stroke-width="0.6"/>
<polygon points="2530.4,954.3 2612.1,954.3 2659.4,896.4 2575.4,896.4" fill="#5a1212" stroke="#1a0606" stroke-width="0.6"/>
<polygon points="-885.9,1071.8 -791.9,1071.8 -849.9,1008.8 -947.0,1008.8" fill="#5a1212" stroke="#1a0606" stroke-width="0.6"/>
<polygon points="-778.5,1071.8 -684.5,1071.8 -738.9,1008.8 -836.0,1008.8" fill="#5a1212" stroke="#1a0606" stroke-width="0.6"/>
<polygon points="-671.1,1071.8 -577.1,1071.8 -628.0,1008.8 -725.1,1008.8" fill="#5a1212" stroke="#1a0606" stroke-width="0.6"/>
<polygon points="-563.7,1071.8 -469.7,1071.8 -517.0,1008.8 -614.1,1008.8" fill="#5a1212" stroke="#1a0606" stroke-width="0.6"/>
<polygon points="-456.3,1071.8 -362.3,1071.8 -406.1,1008.8 -503.2,1008.8" fill="#5a1212" stroke="#1a0606" stroke-width="0.6"/>
<polygon points="-348.9,1071.8 -254.9,1071.8 -295.1,1008.8 -392.2,1008.8" fill="#5a1212" stroke="#1a0606" stroke-width="0.6"/>
<polygon points="-241.5,1071.8 -147.5,1071.8 -184.2,1008.8 -281.3,1008.8" fill="#5a1212" stroke="#1a0606" stroke-width="0.6"/>
<polygon points="-134.1,1071.8 -40.2,1071.8 -73.2,1008.8 -170.3,1008.8" fill="#5a1212" stroke="#1a0606" stroke-width="0.6"/>
<polygon points="-26.7,1071.8 67.2,1071.8 37.7,1008.8 -59.4,1008.8" fill="#5a1212" stroke="#1a0606" stroke-width="0.6"/>
<polygon points="80.7,1071.8 174.6,1071.8 148.7,1008.8 51.6,1008.8" fill="#5a1212" stroke="#1a0606" stroke-width="0.6"/>
<polygon points="188.1,1071.8 282.0,1071.8 259.6,1008.8 162.5,1008.8" fill="#5a1212" stroke="#1a0606" stroke-width="0.6"/>
<polygon points="295.5,1071.8 389.4,1071.8 370.6,1008.8 273.5,1008.8" fill="#5a1212" stroke="#1a0606" stroke-width="0.6"/>
<polygon points="402.9,1071.8 496.8,1071.8 481.5,1008.8 384.4,1008.8" fill="#5a1212" stroke="#1a0606" stroke-width="0.6"/>
<polygon points="510.3,1071.8 604.2,1071.8 592.5,1008.8 495.4,1008.8" fill="#5a1212" stroke="#1a0606" stroke-width="0.6"/>
<polygon points="617.7,1071.8 711.6,1071.8 703.4,1008.8 606.3,1008.8" fill="#5a1212" stroke="#1a0606" stroke-width="0.6"/>
<polygon points="725.1,1071.8 819.0,1071.8 814.4,1008.8 717.3,1008.8" fill="#5a1212" stroke="#1a0606" stroke-width="0.6"/>
<polygon points="832.5,1071.8 926.4,1071.8 925.3,1008.8 828.2,1008.8" fill="#5a1212" stroke="#1a0606" stroke-width="0.6"/>
<polygon points="939.9,1071.8 1033.8,1071.8 1036.3,1008.8 939.2,1008.8" fill="#5a1212" stroke="#1a0606" stroke-width="0.6"/>
<polygon points="1047.3,1071.8 1141.2,1071.8 1147.2,1008.8 1050.1,1008.8" fill="#5a1212" stroke="#1a0606" stroke-width="0.6"/>
<polygon points="1154.7,1071.8 1248.6,1071.8 1258.2,1008.8 1161.1,1008.8" fill="#5a1212" stroke="#1a0606" stroke-width="0.6"/>
<polygon points="1262.1,1071.8 1356.0,1071.8 1369.1,1008.8 1272.1,1008.8" fill="#5a1212" stroke="#1a0606" stroke-width="0.6"/>
<polygon points="1369.5,1071.8 1463.4,1071.8 1480.1,1008.8 1383.0,1008.8" fill="#5a1212" stroke="#1a0606" stroke-width="0.6"/>
<polygon points="1476.9,1071.8 1570.8,1071.8 1591.0,1008.8 1494.0,1008.8" fill="#5a1212" stroke="#1a0606" stroke-width="0.6"/>
<polygon points="1584.3,1071.8 1678.2,1071.8 1702.0,1008.8 1604.9,1008.8" fill="#5a1212" stroke="#1a0606" stroke-width="0.6"/>
<polygon points="1691.7,1071.8 1785.6,1071.8 1812.9,1008.8 1715.9,1008.8" fill="#5a1212" stroke="#1a0606" stroke-width="0.6"/>
<polygon points="1799.1,1071.8 1893.0,1071.8 1923.9,1008.8 1826.8,1008.8" fill="#5a1212" stroke="#1a0606" stroke-width="0.6"/>
<polygon points="1906.5,1071.8 2000.4,1071.8 2034.8,1008.8 1937.8,1008.8" fill="#5a1212" stroke="#1a0606" stroke-width="0.6"/>
<polygon points="2013.9,1071.8 2107.8,1071.8 2145.8,1008.8 2048.7,1008.8" fill="#5a1212" stroke="#1a0606" stroke-width="0.6"/>
<polygon points="2121.2,1071.8 2215.2,1071.8 2256.7,1008.8 2159.7,1008.8" fill="#5a1212" stroke="#1a0606" stroke-width="0.6"/>
<polygon points="2228.6,1071.8 2322.6,1071.8 2367.7,1008.8 2270.6,1008.8" fill="#5a1212" stroke="#1a0606" stroke-width="0.6"/>
<polygon points="2336.0,1071.8 2430.0,1071.8 2478.7,1008.8 2381.6,1008.8" fill="#5a1212" stroke="#1a0606" stroke-width="0.6"/>
<polygon points="2443.4,1071.8 2537.4,1071.8 2589.6,1008.8 2492.5,1008.8" fill="#5a1212" stroke="#1a0606" stroke-width="0.6"/>
<polygon points="2550.8,1071.8 2644.8,1071.8 2700.6,1008.8 2603.5,1008.8" fill="#5a1212" stroke="#1a0606" stroke-width="0.6"/>
<polygon points="2658.2,1071.8 2752.2,1071.8 2811.5,1008.8 2714.4,1008.8" fill="#5a1212" stroke="#1a0606" stroke-width="0.6"/>
<polygon points="2765.6,1071.8 2859.6,1071.8 2922.5,1008.8 2825.4,1008.8" fill="#5a1212" stroke="#1a0606" stroke-width="0.6"/>
<polygon points="-1211.2,1230.6 -1100.7,1230.6 -1181.3,1162.3 -1296.2,1162.3" fill="#5a1212" stroke="#1a0606" stroke-width="0.6"/>
<polygon points="-1084.9,1230.6 -974.3,1230.6 -1050.0,1162.3 -1164.9,1162.3" fill="#5a1212" stroke="#1a0606" stroke-width="0.6"/>
<polygon points="-958.5,1230.6 -848.0,1230.6 -918.8,1162.3 -1033.6,1162.3" fill="#5a1212" stroke="#1a0606" stroke-width="0.6"/>
<polygon points="-832.2,1230.6 -721.7,1230.6 -787.5,1162.3 -902.4,1162.3" fill="#5a1212" stroke="#1a0606" stroke-width="0.6"/>
<polygon points="-705.9,1230.6 -595.4,1230.6 -656.2,1162.3 -771.1,1162.3" fill="#5a1212" stroke="#1a0606" stroke-width="0.6"/>
<polygon points="-579.6,1230.6 -469.0,1230.6 -525.0,1162.3 -639.8,1162.3" fill="#5a1212" stroke="#1a0606" stroke-width="0.6"/>
<polygon points="-453.2,1230.6 -342.7,1230.6 -393.7,1162.3 -508.6,1162.3" fill="#5a1212" stroke="#1a0606" stroke-width="0.6"/>
<polygon points="-326.9,1230.6 -216.4,1230.6 -262.4,1162.3 -377.3,1162.3" fill="#5a1212" stroke="#1a0606" stroke-width="0.6"/>
<polygon points="-200.6,1230.6 -90.1,1230.6 -131.2,1162.3 -246.0,1162.3" fill="#5a1212" stroke="#1a0606" stroke-width="0.6"/>
<polygon points="-74.3,1230.6 36.3,1230.6 0.1,1162.3 -114.8,1162.3" fill="#5a1212" stroke="#1a0606" stroke-width="0.6"/>
<polygon points="52.0,1230.6 162.6,1230.6 131.4,1162.3 16.5,1162.3" fill="#5a1212" stroke="#1a0606" stroke-width="0.6"/>
<polygon points="178.4,1230.6 288.9,1230.6 262.6,1162.3 147.8,1162.3" fill="#5a1212" stroke="#1a0606" stroke-width="0.6"/>
<polygon points="304.7,1230.6 415.2,1230.6 393.9,1162.3 279.0,1162.3" fill="#5a1212" stroke="#1a0606" stroke-width="0.6"/>
<polygon points="431.0,1230.6 541.6,1230.6 525.2,1162.3 410.3,1162.3" fill="#5a1212" stroke="#1a0606" stroke-width="0.6"/>
<polygon points="557.3,1230.6 667.9,1230.6 656.4,1162.3 541.6,1162.3" fill="#5a1212" stroke="#1a0606" stroke-width="0.6"/>
<polygon points="683.7,1230.6 794.2,1230.6 787.7,1162.3 672.9,1162.3" fill="#5a1212" stroke="#1a0606" stroke-width="0.6"/>
<polygon points="810.0,1230.6 920.5,1230.6 919.0,1162.3 804.1,1162.3" fill="#5a1212" stroke="#1a0606" stroke-width="0.6"/>
<polygon points="936.3,1230.6 1046.8,1230.6 1050.2,1162.3 935.4,1162.3" fill="#5a1212" stroke="#1a0606" stroke-width="0.6"/>
<polygon points="1062.6,1230.6 1173.2,1230.6 1181.5,1162.3 1066.7,1162.3" fill="#5a1212" stroke="#1a0606" stroke-width="0.6"/>
<polygon points="1189.0,1230.6 1299.5,1230.6 1312.8,1162.3 1197.9,1162.3" fill="#5a1212" stroke="#1a0606" stroke-width="0.6"/>
<polygon points="1315.3,1230.6 1425.8,1230.6 1444.0,1162.3 1329.2,1162.3" fill="#5a1212" stroke="#1a0606" stroke-width="0.6"/>
<polygon points="1441.6,1230.6 1552.1,1230.6 1575.3,1162.3 1460.5,1162.3" fill="#5a1212" stroke="#1a0606" stroke-width="0.6"/>
<polygon points="1567.9,1230.6 1678.5,1230.6 1706.6,1162.3 1591.7,1162.3" fill="#5a1212" stroke="#1a0606" stroke-width="0.6"/>
<polygon points="1694.3,1230.6 1804.8,1230.6 1837.9,1162.3 1723.0,1162.3" fill="#5a1212" stroke="#1a0606" stroke-width="0.6"/>
<polygon points="1820.6,1230.6 1931.1,1230.6 1969.1,1162.3 1854.3,1162.3" fill="#5a1212" stroke="#1a0606" stroke-width="0.6"/>
<polygon points="1946.9,1230.6 2057.4,1230.6 2100.4,1162.3 1985.5,1162.3" fill="#5a1212" stroke="#1a0606" stroke-width="0.6"/>
<polygon points="2073.2,1230.6 2183.8,1230.6 2231.7,1162.3 2116.8,1162.3" fill="#5a1212" stroke="#1a0606" stroke-width="0.6"/>
<polygon points="2199.5,1230.6 2310.1,1230.6 2362.9,1162.3 2248.1,1162.3" fill="#5a1212" stroke="#1a0606" stroke-width="0.6"/>
<polygon points="2325.9,1230.6 2436.4,1230.6 2494.2,1162.3 2379.3,1162.3" fill="#5a1212" stroke="#1a0606" stroke-width="0.6"/>
<polygon points="2452.2,1230.6 2562.7,1230.6 2625.5,1162.3 2510.6,1162.3" fill="#5a1212" stroke="#1a0606" stroke-width="0.6"/>
<polygon points="2578.5,1230.6 2689.1,1230.6 2756.7,1162.3 2641.9,1162.3" fill="#5a1212" stroke="#1a0606" stroke-width="0.6"/>
<polygon points="2704.8,1230.6 2815.4,1230.6 2888.0,1162.3 2773.1,1162.3" fill="#5a1212" stroke="#1a0606" stroke-width="0.6"/>
<polygon points="2831.2,1230.6 2941.7,1230.6 3019.3,1162.3 2904.4,1162.3" fill="#5a1212" stroke="#1a0606" stroke-width="0.6"/>
<polygon points="2957.5,1230.6 3068.0,1230.6 3150.5,1162.3 3035.7,1162.3" fill="#5a1212" stroke="#1a0606" stroke-width="0.6"/>
<polygon points="3083.8,1230.6 3194.3,1230.6 3281.8,1162.3 3166.9,1162.3" fill="#5a1212" stroke="#1a0606" stroke-width="0.6"/>
<polygon points="-1880.7,1553.3 -1736.1,1553.3 -1875.8,1479.5 -2028.0,1479.5" fill="#5a1212" stroke="#1a0606" stroke-width="0.6"/>
<polygon points="-1715.4,1553.3 -1570.8,1553.3 -1702.0,1479.5 -1854.1,1479.5" fill="#5a1212" stroke="#1a0606" stroke-width="0.6"/>
<polygon points="-1550.2,1553.3 -1405.5,1553.3 -1528.1,1479.5 -1680.3,1479.5" fill="#5a1212" stroke="#1a0606" stroke-width="0.6"/>
<polygon points="-1384.9,1553.3 -1240.3,1553.3 -1354.3,1479.5 -1506.4,1479.5" fill="#5a1212" stroke="#1a0606" stroke-width="0.6"/>
<polygon points="-1219.6,1553.3 -1075.0,1553.3 -1180.5,1479.5 -1332.6,1479.5" fill="#5a1212" stroke="#1a0606" stroke-width="0.6"/>
<polygon points="-1054.3,1553.3 -909.7,1553.3 -1006.6,1479.5 -1158.7,1479.5" fill="#5a1212" stroke="#1a0606" stroke-width="0.6"/>
<polygon points="-889.0,1553.3 -744.4,1553.3 -832.8,1479.5 -984.9,1479.5" fill="#5a1212" stroke="#1a0606" stroke-width="0.6"/>
<polygon points="-723.8,1553.3 -579.1,1553.3 -658.9,1479.5 -811.0,1479.5" fill="#5a1212" stroke="#1a0606" stroke-width="0.6"/>
<polygon points="-558.5,1553.3 -413.9,1553.3 -485.1,1479.5 -637.2,1479.5" fill="#5a1212" stroke="#1a0606" stroke-width="0.6"/>
<polygon points="-393.2,1553.3 -248.6,1553.3 -311.2,1479.5 -463.4,1479.5" fill="#5a1212" stroke="#1a0606" stroke-width="0.6"/>
<polygon points="-227.9,1553.3 -83.3,1553.3 -137.4,1479.5 -289.5,1479.5" fill="#5a1212" stroke="#1a0606" stroke-width="0.6"/>
<polygon points="-62.7,1553.3 82.0,1553.3 36.5,1479.5 -115.7,1479.5" fill="#5a1212" stroke="#1a0606" stroke-width="0.6"/>
<polygon points="102.6,1553.3 247.2,1553.3 210.3,1479.5 58.2,1479.5" fill="#5a1212" stroke="#1a0606" stroke-width="0.6"/>
<polygon points="267.9,1553.3 412.5,1553.3 384.1,1479.5 232.0,1479.5" fill="#5a1212" stroke="#1a0606" stroke-width="0.6"/>
<polygon points="433.2,1553.3 577.8,1553.3 558.0,1479.5 405.9,1479.5" fill="#5a1212" stroke="#1a0606" stroke-width="0.6"/>
<polygon points="598.5,1553.3 743.1,1553.3 731.8,1479.5 579.7,1479.5" fill="#5a1212" stroke="#1a0606" stroke-width="0.6"/>
<polygon points="763.7,1553.3 908.4,1553.3 905.7,1479.5 753.6,1479.5" fill="#5a1212" stroke="#1a0606" stroke-width="0.6"/>
<polygon points="929.0,1553.3 1073.6,1553.3 1079.5,1479.5 927.4,1479.5" fill="#5a1212" stroke="#1a0606" stroke-width="0.6"/>
<polygon points="1094.3,1553.3 1238.9,1553.3 1253.4,1479.5 1101.2,1479.5" fill="#5a1212" stroke="#1a0606" stroke-width="0.6"/>
<polygon points="1259.6,1553.3 1404.2,1553.3 1427.2,1479.5 1275.1,1479.5" fill="#5a1212" stroke="#1a0606" stroke-width="0.6"/>
<polygon points="1424.8,1553.3 1569.5,1553.3 1601.1,1479.5 1448.9,1479.5" fill="#5a1212" stroke="#1a0606" stroke-width="0.6"/>
<polygon points="1590.1,1553.3 1734.7,1553.3 1774.9,1479.5 1622.8,1479.5" fill="#5a1212" stroke="#1a0606" stroke-width="0.6"/>
<polygon points="1755.4,1553.3 1900.0,1553.3 1948.7,1479.5 1796.6,1479.5" fill="#5a1212" stroke="#1a0606" stroke-width="0.6"/>
<polygon points="1920.7,1553.3 2065.3,1553.3 2122.6,1479.5 1970.5,1479.5" fill="#5a1212" stroke="#1a0606" stroke-width="0.6"/>
<polygon points="2086.0,1553.3 2230.6,1553.3 2296.4,1479.5 2144.3,1479.5" fill="#5a1212" stroke="#1a0606" stroke-width="0.6"/>
<polygon points="2251.2,1553.3 2395.8,1553.3 2470.3,1479.5 2318.2,1479.5" fill="#5a1212" stroke="#1a0606" stroke-width="0.6"/>
<polygon points="2416.5,1553.3 2561.1,1553.3 2644.1,1479.5 2492.0,1479.5" fill="#5a1212" stroke="#1a0606" stroke-width="0.6"/>
<polygon points="2581.8,1553.3 2726.4,1553.3 2818.0,1479.5 2665.8,1479.5" fill="#5a1212" stroke="#1a0606" stroke-width="0.6"/>
<polygon points="2747.1,1553.3 2891.7,1553.3 2991.8,1479.5 2839.7,1479.5" fill="#5a1212" stroke="#1a0606" stroke-width="0.6"/>
<polygon points="2912.3,1553.3 3057.0,1553.3 3165.7,1479.5 3013.5,1479.5" fill="#5a1212" stroke="#1a0606" stroke-width="0.6"/>
<polygon points="3077.6,1553.3 3222.2,1553.3 3339.5,1479.5 3187.4,1479.5" fill="#5a1212" stroke="#1a0606" stroke-width="0.6"/>
<polygon points="3242.9,1553.3 3387.5,1553.3 3513.3,1479.5 3361.2,1479.5" fill="#5a1212" stroke="#1a0606" stroke-width="0.6"/>
<polygon points="3408.2,1553.3 3552.8,1553.3 3687.2,1479.5 3535.1,1479.5" fill="#5a1212" stroke="#1a0606" stroke-width="0.6"/>
<polygon points="3573.5,1553.3 3718.1,1553.3 3861.0,1479.5 3708.9,1479.5" fill="#5a1212" stroke="#1a0606" stroke-width="0.6"/>
<polygon points="3738.7,1553.3 3883.3,1553.3 4034.9,1479.5 3882.8,1479.5" fill="#5a1212" stroke="#1a0606" stroke-width="0.6"/>
<polygon points="-3646.1,2419.9 -3411.6,2419.9 -3791.3,2371.5 -4046.1,2371.5" fill="#5a1212" stroke="#1a0606" stroke-width="0.6"/>
<polygon points="-3378.1,2419.9 -3143.6,2419.9 -3500.0,2371.5 -3754.9,2371.5" fill="#5a1212" stroke="#1a0606" stroke-width="0.6"/>
<polygon points="-3110.1,2419.9 -2875.6,2419.9 -3208.8,2371.5 -3463.6,2371.5" fill="#5a1212" stroke="#1a0606" stroke-width="0.6"/>
<polygon points="-2842.2,2419.9 -2607.7,2419.9 -2917.5,2371.5 -3172.3,2371.5" fill="#5a1212" stroke="#1a0606" stroke-width="0.6"/>
<polygon points="-2574.2,2419.9 -2339.7,2419.9 -2626.2,2371.5 -2881.1,2371.5" fill="#5a1212" stroke="#1a0606" stroke-width="0.6"/>
<polygon points="-2306.2,2419.9 -2071.7,2419.9 -2335.0,2371.5 -2589.8,2371.5" fill="#5a1212" stroke="#1a0606" stroke-width="0.6"/>
<polygon points="-2038.2,2419.9 -1803.7,2419.9 -2043.7,2371.5 -2298.5,2371.5" fill="#5a1212" stroke="#1a0606" stroke-width="0.6"/>
<polygon points="-1770.2,2419.9 -1535.7,2419.9 -1752.4,2371.5 -2007.3,2371.5" fill="#5a1212" stroke="#1a0606" stroke-width="0.6"/>
<polygon points="-1502.2,2419.9 -1267.7,2419.9 -1461.2,2371.5 -1716.0,2371.5" fill="#5a1212" stroke="#1a0606" stroke-width="0.6"/>
<polygon points="-1234.2,2419.9 -999.7,2419.9 -1169.9,2371.5 -1424.7,2371.5" fill="#5a1212" stroke="#1a0606" stroke-width="0.6"/>
<polygon points="-966.2,2419.9 -731.7,2419.9 -878.6,2371.5 -1133.5,2371.5" fill="#5a1212" stroke="#1a0606" stroke-width="0.6"/>
<polygon points="-698.2,2419.9 -463.7,2419.9 -587.4,2371.5 -842.2,2371.5" fill="#5a1212" stroke="#1a0606" stroke-width="0.6"/>
<polygon points="-430.2,2419.9 -195.7,2419.9 -296.1,2371.5 -550.9,2371.5" fill="#5a1212" stroke="#1a0606" stroke-width="0.6"/>
<polygon points="-162.2,2419.9 72.3,2419.9 -4.8,2371.5 -259.7,2371.5" fill="#5a1212" stroke="#1a0606" stroke-width="0.6"/>
<polygon points="105.8,2419.9 340.3,2419.9 286.4,2371.5 31.6,2371.5" fill="#5a1212" stroke="#1a0606" stroke-width="0.6"/>
<polygon points="373.8,2419.9 608.3,2419.9 577.7,2371.5 322.9,2371.5" fill="#5a1212" stroke="#1a0606" stroke-width="0.6"/>
<polygon points="641.8,2419.9 876.3,2419.9 869.0,2371.5 614.1,2371.5" fill="#5a1212" stroke="#1a0606" stroke-width="0.6"/>
<polygon points="909.8,2419.9 1144.2,2419.9 1160.2,2371.5 905.4,2371.5" fill="#5a1212" stroke="#1a0606" stroke-width="0.6"/>
<polygon points="1177.7,2419.9 1412.2,2419.9 1451.5,2371.5 1196.7,2371.5" fill="#5a1212" stroke="#1a0606" stroke-width="0.6"/>
<polygon points="1445.7,2419.9 1680.2,2419.9 1742.8,2371.5 1487.9,2371.5" fill="#5a1212" stroke="#1a0606" stroke-width="0.6"/>
<polygon points="1713.7,2419.9 1948.2,2419.9 2034.0,2371.5 1779.2,2371.5" fill="#5a1212" stroke="#1a0606" stroke-width="0.6"/>
<polygon points="1981.7,2419.9 2216.2,2419.9 2325.3,2371.5 2070.5,2371.5" fill="#5a1212" stroke="#1a0606" stroke-width="0.6"/>
<polygon points="2249.7,2419.9 2484.2,2419.9 2616.6,2371.5 2361.7,2371.5" fill="#5a1212" stroke="#1a0606" stroke-width="0.6"/>
<polygon points="2517.7,2419.9 2752.2,2419.9 2907.8,2371.5 2653.0,2371.5" fill="#5a1212" stroke="#1a0606" stroke-width="0.6"/>
<polygon points="2785.7,2419.9 3020.2,2419.9 3199.1,2371.5 2944.3,2371.5" fill="#5a1212" stroke="#1a0606" stroke-width="0.6"/>
<polygon points="3053.7,2419.9 3288.2,2419.9 3490.4,2371.5 3235.5,2371.5" fill="#5a1212" stroke="#1a0606" stroke-width="0.6"/>
<polygon points="3321.7,2419.9 3556.2,2419.9 3781.6,2371.5 3526.8,2371.5" fill="#5a1212" stroke="#1a0606" stroke-width="0.6"/>
<polygon points="3589.7,2419.9 3824.2,2419.9 4072.9,2371.5 3818.1,2371.5" fill="#5a1212" stroke="#1a0606" stroke-width="0.6"/>
<polygon points="3857.7,2419.9 4092.2,2419.9 4364.2,2371.5 4109.3,2371.5" fill="#5a1212" stroke="#1a0606" stroke-width="0.6"/>
<polygon points="4125.7,2419.9 4360.2,2419.9 4655.4,2371.5 4400.6,2371.5" fill="#5a1212" stroke="#1a0606" stroke-width="0.6"/>
<polygon points="4393.7,2419.9 4628.2,2419.9 4946.7,2371.5 4691.9,2371.5" fill="#5a1212" stroke="#1a0606" stroke-width="0.6"/>
<polygon points="4661.7,2419.9 4896.1,2419.9 5238.0,2371.5 4983.1,2371.5" fill="#5a1212" stroke="#1a0606" stroke-width="0.6"/>
<polygon points="4929.6,2419.9 5164.1,2419.9 5529.2,2371.5 5274.4,2371.5" fill="#5a1212" stroke="#1a0606" stroke-width="0.6"/>
<polygon points="5197.6,2419.9 5432.1,2419.9 5820.5,2371.5 5565.7,2371.5" fill="#5a1212" stroke="#1a0606" stroke-width="0.6"/>
<polygon points="5465.6,2419.9 5700.1,2419.9 6111.8,2371.5 5856.9,2371.5" fill="#5a1212" stroke="#1a0606" stroke-width="0.6"/>
<polygon points="1628.0,732.7 292.0,732.7 498.4,465.7 1421.6,465.7" fill="#c9a14a" fill-opacity="0.10" stroke="#c9a14a" stroke-opacity="0.55" stroke-width="2"/>
<line x1="292.0" y1="732.7" x2="498.4" y2="465.7" stroke="#c9a14a" stroke-opacity="0.30" stroke-width="1"/>
<line x1="425.6" y1="732.7" x2="590.7" y2="465.7" stroke="#c9a14a" stroke-opacity="0.30" stroke-width="1"/>
<line x1="559.2" y1="732.7" x2="683.0" y2="465.7" stroke="#c9a14a" stroke-opacity="0.30" stroke-width="1"/>
<line x1="692.8" y1="732.7" x2="775.3" y2="465.7" stroke="#c9a14a" stroke-opacity="0.30" stroke-width="1"/>
<line x1="826.4" y1="732.7" x2="867.7" y2="465.7" stroke="#c9a14a" stroke-opacity="0.30" stroke-width="1"/>
<line x1="960.0" y1="732.7" x2="960.0" y2="465.7" stroke="#c9a14a" stroke-opacity="0.30" stroke-width="1"/>
<line x1="1093.6" y1="732.7" x2="1052.3" y2="465.7" stroke="#c9a14a" stroke-opacity="0.30" stroke-width="1"/>
<line x1="1227.2" y1="732.7" x2="1144.7" y2="465.7" stroke="#c9a14a" stroke-opacity="0.30" stroke-width="1"/>
<line x1="1360.8" y1="732.7" x2="1237.0" y2="465.7" stroke="#c9a14a" stroke-opacity="0.30" stroke-width="1"/>
<line x1="1494.4" y1="732.7" x2="1329.3" y2="465.7" stroke="#c9a14a" stroke-opacity="0.30" stroke-width="1"/>
<line x1="1628.0" y1="732.7" x2="1421.6" y2="465.7" stroke="#c9a14a" stroke-opacity="0.30" stroke-width="1"/>
<line x1="292.0" y1="732.7" x2="1628.0" y2="732.7" stroke="#c9a14a" stroke-opacity="0.30" stroke-width="1"/>
<line x1="338.4" y1="672.8" x2="1581.6" y2="672.8" stroke="#c9a14a" stroke-opacity="0.30" stroke-width="1"/>
<line x1="378.7" y1="620.6" x2="1541.3" y2="620.6" stroke="#c9a14a" stroke-opacity="0.30" stroke-width="1"/>
<line x1="414.0" y1="574.8" x2="1506.0" y2="574.8" stroke="#c9a14a" stroke-opacity="0.30" stroke-width="1"/>
<line x1="445.4" y1="534.2" x2="1474.6" y2="534.2" stroke="#c9a14a" stroke-opacity="0.30" stroke-width="1"/>
<line x1="473.3" y1="498.1" x2="1446.7" y2="498.1" stroke="#c9a14a" stroke-opacity="0.30" stroke-width="1"/>
<line x1="498.4" y1="465.7" x2="1421.6" y2="465.7" stroke="#c9a14a" stroke-opacity="0.30" stroke-width="1"/>
<line x1="950.0" y1="732.7" x2="970.0" y2="732.7" stroke="#ffbc00" stroke-width="2"/>
<line x1="960.0" y1="722.7" x2="960.0" y2="742.7" stroke="#ffbc00" stroke-width="2"/>
<circle cx="960.0" cy="732.7" r="8" fill="none" stroke="#ffbc00" stroke-width="1.5"/>
<circle cx="1628.0" cy="732.7" r="7" fill="rgba(255,188,0,0.8)" stroke="#ffbc00" stroke-width="1.5"/>
<text x="1640.0" y="736.7" fill="rgba(247,245,233,0.8)" font-size="11" font-weight="600">DSL</text>
<circle cx="292.0" cy="732.7" r="7" fill="rgba(255,188,0,0.8)" stroke="#ffbc00" stroke-width="1.5"/>
<text x="304.0" y="736.7" fill="rgba(247,245,233,0.8)" font-size="11" font-weight="600">DSR</text>
<circle cx="498.4" cy="465.7" r="7" fill="rgba(255,188,0,0.8)" stroke="#ffbc00" stroke-width="1.5"/>
<text x="510.4" y="469.7" fill="rgba(247,245,233,0.8)" font-size="11" font-weight="600">USR</text>
<circle cx="1421.6" cy="465.7" r="7" fill="rgba(255,188,0,0.8)" stroke="#ffbc00" stroke-width="1.5"/>
<text x="1433.6" y="469.7" fill="rgba(247,245,233,0.8)" font-size="11" font-weight="600">USL</text>
<rect x="0.5" y="0.5" width="1919" height="1079" fill="none" stroke="#000" stroke-width="1"/>
</svg>
